<svg xmlns="http://www.w3.org/2000/svg" xmlns:xlink="http://www.w3.org/1999/xlink" width="64" zoomAndPan="magnify" viewBox="0 0 48 48" height="64" preserveAspectRatio="xMidYMid meet" version="1.0"><defs><clipPath id="ad74072d4c"><path d="M 41.597656 32.28125 L 44.601562 32.28125 L 44.601562 35.328125 L 41.597656 35.328125 Z M 41.597656 32.28125 " clip-rule="nonzero"/></clipPath><clipPath id="b9e73fb8d9"><path d="M 41.597656 29.316406 L 44.601562 29.316406 L 44.601562 32.367188 L 41.597656 32.367188 Z M 41.597656 29.316406 " clip-rule="nonzero"/></clipPath><clipPath id="3e87aa50dc"><path d="M 41.597656 26.355469 L 44.601562 26.355469 L 44.601562 29.40625 L 41.597656 29.40625 Z M 41.597656 26.355469 " clip-rule="nonzero"/></clipPath><clipPath id="c3695085ad"><path d="M 41.597656 23.480469 L 44.601562 23.480469 L 44.601562 26.441406 L 41.597656 26.441406 Z M 41.597656 23.480469 " clip-rule="nonzero"/></clipPath><clipPath id="755f62762a"><path d="M 41.597656 20.515625 L 44.601562 20.515625 L 44.601562 23.566406 L 41.597656 23.566406 Z M 41.597656 20.515625 " clip-rule="nonzero"/></clipPath><clipPath id="6e38d1d400"><path d="M 41.597656 17.554688 L 44.601562 17.554688 L 44.601562 20.605469 L 41.597656 20.605469 Z M 41.597656 17.554688 " clip-rule="nonzero"/></clipPath><clipPath id="7839d410b0"><path d="M 41.597656 14.679688 L 44.601562 14.679688 L 44.601562 17.640625 L 41.597656 17.640625 Z M 41.597656 14.679688 " clip-rule="nonzero"/></clipPath><clipPath id="6ae7b83b34"><path d="M 41.597656 11.71875 L 44.601562 11.71875 L 44.601562 14.765625 L 41.597656 14.765625 Z M 41.597656 11.71875 " clip-rule="nonzero"/></clipPath><clipPath id="f774158643"><path d="M 32.785156 44.042969 L 35.839844 44.042969 L 35.839844 46.980469 L 32.785156 46.980469 Z M 32.785156 44.042969 " clip-rule="nonzero"/></clipPath><clipPath id="8c0410dc77"><path d="M 29.902344 44.042969 L 32.871094 44.042969 L 32.871094 46.980469 L 29.902344 46.980469 Z M 29.902344 44.042969 " clip-rule="nonzero"/></clipPath><clipPath id="4da6e3e45d"><path d="M 26.9375 44.042969 L 29.902344 44.042969 L 29.902344 46.980469 L 26.9375 46.980469 Z M 26.9375 44.042969 " clip-rule="nonzero"/></clipPath><clipPath id="6617ec80b4"><path d="M 24 44.042969 L 27 44.042969 L 27 46.980469 L 24 46.980469 Z M 24 44.042969 " clip-rule="nonzero"/></clipPath><clipPath id="06e8a2a391"><path d="M 21 44.042969 L 24.054688 44.042969 L 24.054688 46.980469 L 21 46.980469 Z M 21 44.042969 " clip-rule="nonzero"/></clipPath><clipPath id="b8711c9a56"><path d="M 18.121094 44.042969 L 21.089844 44.042969 L 21.089844 46.980469 L 18.121094 46.980469 Z M 18.121094 44.042969 " clip-rule="nonzero"/></clipPath><clipPath id="9ac03ae05d"><path d="M 15.152344 44.042969 L 18.207031 44.042969 L 18.207031 46.980469 L 15.152344 46.980469 Z M 15.152344 44.042969 " clip-rule="nonzero"/></clipPath><clipPath id="4633a35a3d"><path d="M 12.273438 44.042969 L 15.242188 44.042969 L 15.242188 46.980469 L 12.273438 46.980469 Z M 12.273438 44.042969 " clip-rule="nonzero"/></clipPath><clipPath id="006e75cff8"><path d="M 3.457031 32 L 7 32 L 7 36 L 3.457031 36 Z M 3.457031 32 " clip-rule="nonzero"/></clipPath><clipPath id="c6a7621250"><path d="M 3.457031 29 L 7 29 L 7 33 L 3.457031 33 Z M 3.457031 29 " clip-rule="nonzero"/></clipPath><clipPath id="0a34d2070a"><path d="M 3.457031 26 L 7 26 L 7 30 L 3.457031 30 Z M 3.457031 26 " clip-rule="nonzero"/></clipPath><clipPath id="71965f67aa"><path d="M 3.457031 23 L 7 23 L 7 27 L 3.457031 27 Z M 3.457031 23 " clip-rule="nonzero"/></clipPath><clipPath id="b125086baf"><path d="M 3.457031 20 L 7 20 L 7 24 L 3.457031 24 Z M 3.457031 20 " clip-rule="nonzero"/></clipPath><clipPath id="6592b3ac35"><path d="M 3.457031 17 L 7 17 L 7 21 L 3.457031 21 Z M 3.457031 17 " clip-rule="nonzero"/></clipPath><clipPath id="4d5dbf9bea"><path d="M 3.457031 14 L 7 14 L 7 18 L 3.457031 18 Z M 3.457031 14 " clip-rule="nonzero"/></clipPath><clipPath id="08e0102d01"><path d="M 3.457031 11 L 7 11 L 7 15 L 3.457031 15 Z M 3.457031 11 " clip-rule="nonzero"/></clipPath></defs><g clip-path="url(#ad74072d4c)"><path fill="#702412" d="M 44.601562 32.3125 L 44.601562 35.246094 L 41.65625 35.246094 L 41.65625 32.3125 L 44.601562 32.3125 " fill-opacity="1" fill-rule="nonzero"/></g><g clip-path="url(#b9e73fb8d9)"><path fill="#c74424" d="M 44.601562 29.382812 L 44.601562 32.3125 L 41.65625 32.3125 L 41.65625 29.382812 L 44.601562 29.382812 " fill-opacity="1" fill-rule="nonzero"/></g><g clip-path="url(#3e87aa50dc)"><path fill="#c74424" d="M 44.601562 26.441406 L 44.601562 29.382812 L 41.65625 29.382812 L 41.65625 26.441406 L 44.601562 26.441406 " fill-opacity="1" fill-rule="nonzero"/></g><g clip-path="url(#c3695085ad)"><path fill="#ed7239" d="M 44.601562 23.511719 L 44.601562 26.441406 L 41.65625 26.441406 L 41.65625 23.511719 L 44.601562 23.511719 " fill-opacity="1" fill-rule="nonzero"/></g><g clip-path="url(#755f62762a)"><path fill="#c74424" d="M 44.601562 20.578125 L 44.601562 23.511719 L 41.65625 23.511719 L 41.65625 20.578125 L 44.601562 20.578125 " fill-opacity="1" fill-rule="nonzero"/></g><g clip-path="url(#6e38d1d400)"><path fill="#ed7239" d="M 44.601562 17.640625 L 44.601562 20.578125 L 41.65625 20.578125 L 41.65625 17.640625 L 44.601562 17.640625 " fill-opacity="1" fill-rule="nonzero"/></g><g clip-path="url(#7839d410b0)"><path fill="#ed7239" d="M 44.601562 14.707031 L 44.601562 17.640625 L 41.65625 17.640625 L 41.65625 14.707031 L 44.601562 14.707031 " fill-opacity="1" fill-rule="nonzero"/></g><g clip-path="url(#6ae7b83b34)"><path fill="#c74424" d="M 44.601562 11.777344 L 44.601562 14.707031 L 41.65625 14.707031 L 41.65625 11.777344 L 44.601562 11.777344 " fill-opacity="1" fill-rule="nonzero"/></g><path fill="#702412" d="M 41.65625 38.175781 L 41.65625 41.117188 L 38.71875 41.117188 L 38.71875 38.175781 L 41.65625 38.175781 " fill-opacity="1" fill-rule="nonzero"/><path fill="#c74424" d="M 41.65625 35.246094 L 41.65625 38.175781 L 38.71875 38.175781 L 38.71875 35.246094 L 41.65625 35.246094 " fill-opacity="1" fill-rule="nonzero"/><path fill="#c74424" d="M 41.65625 32.3125 L 41.65625 35.246094 L 38.71875 35.246094 L 38.71875 32.3125 L 41.65625 32.3125 " fill-opacity="1" fill-rule="nonzero"/><path fill="#c74424" d="M 41.65625 29.382812 L 41.65625 32.3125 L 38.71875 32.3125 L 38.71875 29.382812 L 41.65625 29.382812 " fill-opacity="1" fill-rule="nonzero"/><path fill="#c74424" d="M 41.65625 26.441406 L 41.65625 29.382812 L 38.71875 29.382812 L 38.71875 26.441406 L 41.65625 26.441406 " fill-opacity="1" fill-rule="nonzero"/><path fill="#ed7239" d="M 41.65625 23.511719 L 41.65625 26.441406 L 38.71875 26.441406 L 38.71875 23.511719 L 41.65625 23.511719 " fill-opacity="1" fill-rule="nonzero"/><path fill="#c74424" d="M 41.65625 20.578125 L 41.65625 23.511719 L 38.71875 23.511719 L 38.71875 20.578125 L 41.65625 20.578125 " fill-opacity="1" fill-rule="nonzero"/><path fill="#ed7239" d="M 41.65625 17.640625 L 41.65625 20.578125 L 38.71875 20.578125 L 38.71875 17.640625 L 41.65625 17.640625 " fill-opacity="1" fill-rule="nonzero"/><path fill="#ed7239" d="M 41.65625 14.707031 L 41.65625 17.640625 L 38.71875 17.640625 L 38.71875 14.707031 L 41.65625 14.707031 " fill-opacity="1" fill-rule="nonzero"/><path fill="#c74424" d="M 41.65625 11.777344 L 41.65625 14.707031 L 38.71875 14.707031 L 38.71875 11.777344 L 41.65625 11.777344 " fill-opacity="1" fill-rule="nonzero"/><path fill="#c74424" d="M 41.65625 8.84375 L 41.65625 11.777344 L 38.71875 11.777344 L 38.71875 8.84375 L 41.65625 8.84375 " fill-opacity="1" fill-rule="nonzero"/><path fill="#ed7239" d="M 41.65625 5.902344 L 41.65625 8.84375 L 38.71875 8.84375 L 38.71875 5.902344 L 41.65625 5.902344 " fill-opacity="1" fill-rule="nonzero"/><path fill="#702412" d="M 38.71875 41.117188 L 38.71875 44.046875 L 35.785156 44.046875 L 35.785156 41.117188 L 38.71875 41.117188 " fill-opacity="1" fill-rule="nonzero"/><path fill="#c74424" d="M 38.71875 38.175781 L 38.71875 41.117188 L 35.785156 41.117188 L 35.785156 38.175781 L 38.71875 38.175781 " fill-opacity="1" fill-rule="nonzero"/><path fill="#c74424" d="M 38.71875 35.246094 L 38.71875 38.175781 L 35.785156 38.175781 L 35.785156 35.246094 L 38.71875 35.246094 " fill-opacity="1" fill-rule="nonzero"/><path fill="#fee670" d="M 38.71875 32.3125 L 38.71875 35.246094 L 35.785156 35.246094 L 35.785156 32.3125 L 38.71875 32.3125 " fill-opacity="1" fill-rule="nonzero"/><path fill="#fee670" d="M 38.71875 29.382812 L 38.71875 32.3125 L 35.785156 32.3125 L 35.785156 29.382812 L 38.71875 29.382812 " fill-opacity="1" fill-rule="nonzero"/><path fill="#fee670" d="M 38.71875 26.441406 L 38.71875 29.382812 L 35.785156 29.382812 L 35.785156 26.441406 L 38.71875 26.441406 " fill-opacity="1" fill-rule="nonzero"/><path fill="#fee670" d="M 38.71875 23.511719 L 38.71875 26.441406 L 35.785156 26.441406 L 35.785156 23.511719 L 38.71875 23.511719 " fill-opacity="1" fill-rule="nonzero"/><path fill="#fee670" d="M 38.71875 20.578125 L 38.71875 23.511719 L 35.785156 23.511719 L 35.785156 20.578125 L 38.71875 20.578125 " fill-opacity="1" fill-rule="nonzero"/><path fill="#fee670" d="M 38.71875 17.640625 L 38.71875 20.578125 L 35.785156 20.578125 L 35.785156 17.640625 L 38.71875 17.640625 " fill-opacity="1" fill-rule="nonzero"/><path fill="#fee670" d="M 38.71875 14.707031 L 38.71875 17.640625 L 35.785156 17.640625 L 35.785156 14.707031 L 38.71875 14.707031 " fill-opacity="1" fill-rule="nonzero"/><path fill="#fee670" d="M 38.71875 11.777344 L 38.71875 14.707031 L 35.785156 14.707031 L 35.785156 11.777344 L 38.71875 11.777344 " fill-opacity="1" fill-rule="nonzero"/><path fill="#c74424" d="M 38.71875 8.84375 L 38.71875 11.777344 L 35.785156 11.777344 L 35.785156 8.84375 L 38.71875 8.84375 " fill-opacity="1" fill-rule="nonzero"/><path fill="#ed7239" d="M 38.71875 5.902344 L 38.71875 8.84375 L 35.785156 8.84375 L 35.785156 5.902344 L 38.71875 5.902344 " fill-opacity="1" fill-rule="nonzero"/><path fill="#c74424" d="M 38.71875 2.972656 L 38.71875 5.902344 L 35.785156 5.902344 L 35.785156 2.972656 L 38.71875 2.972656 " fill-opacity="1" fill-rule="nonzero"/><g clip-path="url(#f774158643)"><path fill="#702412" d="M 35.785156 44.046875 L 35.785156 46.980469 L 32.839844 46.980469 L 32.839844 44.046875 L 35.785156 44.046875 " fill-opacity="1" fill-rule="nonzero"/></g><path fill="#c74424" d="M 35.785156 41.117188 L 35.785156 44.046875 L 32.839844 44.046875 L 32.839844 41.117188 L 35.785156 41.117188 " fill-opacity="1" fill-rule="nonzero"/><path fill="#fee670" d="M 35.785156 38.175781 L 35.785156 41.117188 L 32.839844 41.117188 L 32.839844 38.175781 L 35.785156 38.175781 " fill-opacity="1" fill-rule="nonzero"/><path fill="#fee670" d="M 35.785156 35.246094 L 35.785156 38.175781 L 32.839844 38.175781 L 32.839844 35.246094 L 35.785156 35.246094 " fill-opacity="1" fill-rule="nonzero"/><path fill="#fec447" d="M 35.785156 32.3125 L 35.785156 35.246094 L 32.839844 35.246094 L 32.839844 32.3125 L 35.785156 32.3125 " fill-opacity="1" fill-rule="nonzero"/><path fill="#fea52a" d="M 35.785156 29.382812 L 35.785156 32.3125 L 32.839844 32.3125 L 32.839844 29.382812 L 35.785156 29.382812 " fill-opacity="1" fill-rule="nonzero"/><path fill="#fea52a" d="M 35.785156 26.441406 L 35.785156 29.382812 L 32.839844 29.382812 L 32.839844 26.441406 L 35.785156 26.441406 " fill-opacity="1" fill-rule="nonzero"/><path fill="#fea52a" d="M 35.785156 23.511719 L 35.785156 26.441406 L 32.839844 26.441406 L 32.839844 23.511719 L 35.785156 23.511719 " fill-opacity="1" fill-rule="nonzero"/><path fill="#fec447" d="M 35.785156 20.578125 L 35.785156 23.511719 L 32.839844 23.511719 L 32.839844 20.578125 L 35.785156 20.578125 " fill-opacity="1" fill-rule="nonzero"/><path fill="#fec447" d="M 35.785156 17.640625 L 35.785156 20.578125 L 32.839844 20.578125 L 32.839844 17.640625 L 35.785156 17.640625 " fill-opacity="1" fill-rule="nonzero"/><path fill="#fea52a" d="M 35.785156 14.707031 L 35.785156 17.640625 L 32.839844 17.640625 L 32.839844 14.707031 L 35.785156 14.707031 " fill-opacity="1" fill-rule="nonzero"/><path fill="#fec447" d="M 35.785156 11.777344 L 35.785156 14.707031 L 32.839844 14.707031 L 32.839844 11.777344 L 35.785156 11.777344 " fill-opacity="1" fill-rule="nonzero"/><path fill="#fee670" d="M 35.785156 8.84375 L 35.785156 11.777344 L 32.839844 11.777344 L 32.839844 8.84375 L 35.785156 8.84375 " fill-opacity="1" fill-rule="nonzero"/><path fill="#fee670" d="M 35.785156 5.902344 L 35.785156 8.84375 L 32.839844 8.84375 L 32.839844 5.902344 L 35.785156 5.902344 " fill-opacity="1" fill-rule="nonzero"/><path fill="#c74424" d="M 35.785156 2.972656 L 35.785156 5.902344 L 32.839844 5.902344 L 32.839844 2.972656 L 35.785156 2.972656 " fill-opacity="1" fill-rule="nonzero"/><path fill="#c74424" d="M 35.785156 0.0429688 L 35.785156 2.972656 L 32.839844 2.972656 L 32.839844 0.0429688 L 35.785156 0.0429688 " fill-opacity="1" fill-rule="nonzero"/><g clip-path="url(#8c0410dc77)"><path fill="#c74424" d="M 32.839844 44.046875 L 32.839844 46.980469 L 29.902344 46.980469 L 29.902344 44.046875 L 32.839844 44.046875 " fill-opacity="1" fill-rule="nonzero"/></g><path fill="#fee670" d="M 32.839844 41.117188 L 32.839844 44.046875 L 29.902344 44.046875 L 29.902344 41.117188 L 32.839844 41.117188 " fill-opacity="1" fill-rule="nonzero"/><path fill="#fec447" d="M 32.839844 38.175781 L 32.839844 41.117188 L 29.902344 41.117188 L 29.902344 38.175781 L 32.839844 38.175781 " fill-opacity="1" fill-rule="nonzero"/><path fill="#fea52a" d="M 32.839844 35.246094 L 32.839844 38.175781 L 29.902344 38.175781 L 29.902344 35.246094 L 32.839844 35.246094 " fill-opacity="1" fill-rule="nonzero"/><path fill="#fea52a" d="M 32.839844 32.3125 L 32.839844 35.246094 L 29.902344 35.246094 L 29.902344 32.3125 L 32.839844 32.3125 " fill-opacity="1" fill-rule="nonzero"/><path fill="#fea52a" d="M 32.839844 29.382812 L 32.839844 32.3125 L 29.902344 32.3125 L 29.902344 29.382812 L 32.839844 29.382812 " fill-opacity="1" fill-rule="nonzero"/><path fill="#fec447" d="M 32.839844 26.441406 L 32.839844 29.382812 L 29.902344 29.382812 L 29.902344 26.441406 L 32.839844 26.441406 " fill-opacity="1" fill-rule="nonzero"/><path fill="#fec447" d="M 32.839844 23.511719 L 32.839844 26.441406 L 29.902344 26.441406 L 29.902344 23.511719 L 32.839844 23.511719 " fill-opacity="1" fill-rule="nonzero"/><path fill="#fea52a" d="M 32.839844 20.578125 L 32.839844 23.511719 L 29.902344 23.511719 L 29.902344 20.578125 L 32.839844 20.578125 " fill-opacity="1" fill-rule="nonzero"/><path fill="#fea52a" d="M 32.839844 17.640625 L 32.839844 20.578125 L 29.902344 20.578125 L 29.902344 17.640625 L 32.839844 17.640625 " fill-opacity="1" fill-rule="nonzero"/><path fill="#fea52a" d="M 32.839844 14.707031 L 32.839844 17.640625 L 29.902344 17.640625 L 29.902344 14.707031 L 32.839844 14.707031 " fill-opacity="1" fill-rule="nonzero"/><path fill="#fea52a" d="M 32.839844 11.777344 L 32.839844 14.707031 L 29.902344 14.707031 L 29.902344 11.777344 L 32.839844 11.777344 " fill-opacity="1" fill-rule="nonzero"/><path fill="#fec447" d="M 32.839844 8.84375 L 32.839844 11.777344 L 29.902344 11.777344 L 29.902344 8.84375 L 32.839844 8.84375 " fill-opacity="1" fill-rule="nonzero"/><path fill="#fea52a" d="M 32.839844 5.902344 L 32.839844 8.84375 L 29.902344 8.84375 L 29.902344 5.902344 L 32.839844 5.902344 " fill-opacity="1" fill-rule="nonzero"/><path fill="#fee670" d="M 32.839844 2.972656 L 32.839844 5.902344 L 29.902344 5.902344 L 29.902344 2.972656 L 32.839844 2.972656 " fill-opacity="1" fill-rule="nonzero"/><path fill="#c74424" d="M 32.839844 0.0429688 L 32.839844 2.972656 L 29.902344 2.972656 L 29.902344 0.0429688 L 32.839844 0.0429688 " fill-opacity="1" fill-rule="nonzero"/><g clip-path="url(#4da6e3e45d)"><path fill="#fee670" d="M 29.902344 44.046875 L 29.902344 46.980469 L 26.96875 46.980469 L 26.96875 44.046875 L 29.902344 44.046875 " fill-opacity="1" fill-rule="nonzero"/></g><path fill="#fec447" d="M 29.902344 41.117188 L 29.902344 44.046875 L 26.96875 44.046875 L 26.96875 41.117188 L 29.902344 41.117188 " fill-opacity="1" fill-rule="nonzero"/><path fill="#fea52a" d="M 29.902344 38.175781 L 29.902344 41.117188 L 26.96875 41.117188 L 26.96875 38.175781 L 29.902344 38.175781 " fill-opacity="1" fill-rule="nonzero"/><path fill="#fea52a" d="M 29.902344 35.246094 L 29.902344 38.175781 L 26.96875 38.175781 L 26.96875 35.246094 L 29.902344 35.246094 " fill-opacity="1" fill-rule="nonzero"/><path fill="#fec447" d="M 29.902344 32.3125 L 29.902344 35.246094 L 26.96875 35.246094 L 26.96875 32.3125 L 29.902344 32.3125 " fill-opacity="1" fill-rule="nonzero"/><path fill="#fec447" d="M 29.902344 29.382812 L 29.902344 32.3125 L 26.96875 32.3125 L 26.96875 29.382812 L 29.902344 29.382812 " fill-opacity="1" fill-rule="nonzero"/><path fill="#fea52a" d="M 29.902344 26.441406 L 29.902344 29.382812 L 26.96875 29.382812 L 26.96875 26.441406 L 29.902344 26.441406 " fill-opacity="1" fill-rule="nonzero"/><path fill="#fea52a" d="M 29.902344 23.511719 L 29.902344 26.441406 L 26.96875 26.441406 L 26.96875 23.511719 L 29.902344 23.511719 " fill-opacity="1" fill-rule="nonzero"/><path fill="#fea52a" d="M 29.902344 20.578125 L 29.902344 23.511719 L 26.96875 23.511719 L 26.96875 20.578125 L 29.902344 20.578125 " fill-opacity="1" fill-rule="nonzero"/><path fill="#fea52a" d="M 29.902344 17.640625 L 29.902344 20.578125 L 26.96875 20.578125 L 26.96875 17.640625 L 29.902344 17.640625 " fill-opacity="1" fill-rule="nonzero"/><path fill="#fec447" d="M 29.902344 14.707031 L 29.902344 17.640625 L 26.96875 17.640625 L 26.96875 14.707031 L 29.902344 14.707031 " fill-opacity="1" fill-rule="nonzero"/><path fill="#fec447" d="M 29.902344 11.777344 L 29.902344 14.707031 L 26.96875 14.707031 L 26.96875 11.777344 L 29.902344 11.777344 " fill-opacity="1" fill-rule="nonzero"/><path fill="#fee670" d="M 29.902344 8.84375 L 29.902344 11.777344 L 26.96875 11.777344 L 26.96875 8.84375 L 29.902344 8.84375 " fill-opacity="1" fill-rule="nonzero"/><path fill="#c74424" d="M 29.902344 5.902344 L 29.902344 8.84375 L 26.96875 8.84375 L 26.96875 5.902344 L 29.902344 5.902344 " fill-opacity="1" fill-rule="nonzero"/><path fill="#fec447" d="M 29.902344 2.972656 L 29.902344 5.902344 L 26.96875 5.902344 L 26.96875 2.972656 L 29.902344 2.972656 " fill-opacity="1" fill-rule="nonzero"/><path fill="#fee670" d="M 29.902344 0.0429688 L 29.902344 2.972656 L 26.96875 2.972656 L 26.96875 0.0429688 L 29.902344 0.0429688 " fill-opacity="1" fill-rule="nonzero"/><g clip-path="url(#6617ec80b4)"><path fill="#fec447" d="M 26.96875 44.046875 L 26.96875 46.980469 L 24.03125 46.980469 L 24.03125 44.046875 L 26.96875 44.046875 " fill-opacity="1" fill-rule="nonzero"/></g><path fill="#fea52a" d="M 26.96875 41.117188 L 26.96875 44.046875 L 24.03125 44.046875 L 24.03125 41.117188 L 26.96875 41.117188 " fill-opacity="1" fill-rule="nonzero"/><path fill="#fec447" d="M 26.96875 38.175781 L 26.96875 41.117188 L 24.03125 41.117188 L 24.03125 38.175781 L 26.96875 38.175781 " fill-opacity="1" fill-rule="nonzero"/><path fill="#fec447" d="M 26.96875 35.246094 L 26.96875 38.175781 L 24.03125 38.175781 L 24.03125 35.246094 L 26.96875 35.246094 " fill-opacity="1" fill-rule="nonzero"/><path fill="#fea52a" d="M 26.96875 32.3125 L 26.96875 35.246094 L 24.03125 35.246094 L 24.03125 32.3125 L 26.96875 32.3125 " fill-opacity="1" fill-rule="nonzero"/><path fill="#fea52a" d="M 26.96875 29.382812 L 26.96875 32.3125 L 24.03125 32.3125 L 24.03125 29.382812 L 26.96875 29.382812 " fill-opacity="1" fill-rule="nonzero"/><path fill="#fea52a" d="M 26.96875 26.441406 L 26.96875 29.382812 L 24.03125 29.382812 L 24.03125 26.441406 L 26.96875 26.441406 " fill-opacity="1" fill-rule="nonzero"/><path fill="#fea52a" d="M 26.96875 23.511719 L 26.96875 26.441406 L 24.03125 26.441406 L 24.03125 23.511719 L 26.96875 23.511719 " fill-opacity="1" fill-rule="nonzero"/><path fill="#fec447" d="M 26.96875 20.578125 L 26.96875 23.511719 L 24.03125 23.511719 L 24.03125 20.578125 L 26.96875 20.578125 " fill-opacity="1" fill-rule="nonzero"/><path fill="#fec447" d="M 26.96875 17.640625 L 26.96875 20.578125 L 24.03125 20.578125 L 24.03125 17.640625 L 26.96875 17.640625 " fill-opacity="1" fill-rule="nonzero"/><path fill="#fee670" d="M 26.96875 14.707031 L 26.96875 17.640625 L 24.03125 17.640625 L 24.03125 14.707031 L 26.96875 14.707031 " fill-opacity="1" fill-rule="nonzero"/><path fill="#fee670" d="M 26.96875 11.777344 L 26.96875 14.707031 L 24.03125 14.707031 L 24.03125 11.777344 L 26.96875 11.777344 " fill-opacity="1" fill-rule="nonzero"/><path fill="#fec447" d="M 26.96875 8.84375 L 26.96875 11.777344 L 24.03125 11.777344 L 24.03125 8.84375 L 26.96875 8.84375 " fill-opacity="1" fill-rule="nonzero"/><path fill="#fea52a" d="M 26.96875 5.902344 L 26.96875 8.84375 L 24.03125 8.84375 L 24.03125 5.902344 L 26.96875 5.902344 " fill-opacity="1" fill-rule="nonzero"/><path fill="#c74424" d="M 26.96875 2.972656 L 26.96875 5.902344 L 24.03125 5.902344 L 24.03125 2.972656 L 26.96875 2.972656 " fill-opacity="1" fill-rule="nonzero"/><path fill="#fec447" d="M 26.96875 0.0429688 L 26.96875 2.972656 L 24.03125 2.972656 L 24.03125 0.0429688 L 26.96875 0.0429688 " fill-opacity="1" fill-rule="nonzero"/><g clip-path="url(#06e8a2a391)"><path fill="#fea52a" d="M 24.03125 44.046875 L 24.03125 46.980469 L 21.085938 46.980469 L 21.085938 44.046875 L 24.03125 44.046875 " fill-opacity="1" fill-rule="nonzero"/></g><path fill="#c74424" d="M 24.03125 41.117188 L 24.03125 44.046875 L 21.085938 44.046875 L 21.085938 41.117188 L 24.03125 41.117188 " fill-opacity="1" fill-rule="nonzero"/><path fill="#fea52a" d="M 24.03125 38.175781 L 24.03125 41.117188 L 21.085938 41.117188 L 21.085938 38.175781 L 24.03125 38.175781 " fill-opacity="1" fill-rule="nonzero"/><path fill="#fea52a" d="M 24.03125 35.246094 L 24.03125 38.175781 L 21.085938 38.175781 L 21.085938 35.246094 L 24.03125 35.246094 " fill-opacity="1" fill-rule="nonzero"/><path fill="#fea52a" d="M 24.03125 32.3125 L 24.03125 35.246094 L 21.085938 35.246094 L 21.085938 32.3125 L 24.03125 32.3125 " fill-opacity="1" fill-rule="nonzero"/><path fill="#fea52a" d="M 24.03125 29.382812 L 24.03125 32.3125 L 21.085938 32.3125 L 21.085938 29.382812 L 24.03125 29.382812 " fill-opacity="1" fill-rule="nonzero"/><path fill="#fec447" d="M 24.03125 26.441406 L 24.03125 29.382812 L 21.085938 29.382812 L 21.085938 26.441406 L 24.03125 26.441406 " fill-opacity="1" fill-rule="nonzero"/><path fill="#fec447" d="M 24.03125 23.511719 L 24.03125 26.441406 L 21.085938 26.441406 L 21.085938 23.511719 L 24.03125 23.511719 " fill-opacity="1" fill-rule="nonzero"/><path fill="#fee670" d="M 24.03125 20.578125 L 24.03125 23.511719 L 21.085938 23.511719 L 21.085938 20.578125 L 24.03125 20.578125 " fill-opacity="1" fill-rule="nonzero"/><path fill="#fee670" d="M 24.03125 17.640625 L 24.03125 20.578125 L 21.085938 20.578125 L 21.085938 17.640625 L 24.03125 17.640625 " fill-opacity="1" fill-rule="nonzero"/><path fill="#fec447" d="M 24.03125 14.707031 L 24.03125 17.640625 L 21.085938 17.640625 L 21.085938 14.707031 L 24.03125 14.707031 " fill-opacity="1" fill-rule="nonzero"/><path fill="#fec447" d="M 24.03125 11.777344 L 24.03125 14.707031 L 21.085938 14.707031 L 21.085938 11.777344 L 24.03125 11.777344 " fill-opacity="1" fill-rule="nonzero"/><path fill="#fea52a" d="M 24.03125 8.84375 L 24.03125 11.777344 L 21.085938 11.777344 L 21.085938 8.84375 L 24.03125 8.84375 " fill-opacity="1" fill-rule="nonzero"/><path fill="#fea52a" d="M 24.03125 5.902344 L 24.03125 8.84375 L 21.085938 8.84375 L 21.085938 5.902344 L 24.03125 5.902344 " fill-opacity="1" fill-rule="nonzero"/><path fill="#c74424" d="M 24.03125 2.972656 L 24.03125 5.902344 L 21.085938 5.902344 L 21.085938 2.972656 L 24.03125 2.972656 " fill-opacity="1" fill-rule="nonzero"/><path fill="#fea52a" d="M 24.03125 0.0429688 L 24.03125 2.972656 L 21.085938 2.972656 L 21.085938 0.0429688 L 24.03125 0.0429688 " fill-opacity="1" fill-rule="nonzero"/><g clip-path="url(#b8711c9a56)"><path fill="#fea52a" d="M 21.085938 44.046875 L 21.085938 46.980469 L 18.148438 46.980469 L 18.148438 44.046875 L 21.085938 44.046875 " fill-opacity="1" fill-rule="nonzero"/></g><path fill="#c74424" d="M 21.085938 41.117188 L 21.085938 44.046875 L 18.148438 44.046875 L 18.148438 41.117188 L 21.085938 41.117188 " fill-opacity="1" fill-rule="nonzero"/><path fill="#fea52a" d="M 21.085938 38.175781 L 21.085938 41.117188 L 18.148438 41.117188 L 18.148438 38.175781 L 21.085938 38.175781 " fill-opacity="1" fill-rule="nonzero"/><path fill="#fea52a" d="M 21.085938 35.246094 L 21.085938 38.175781 L 18.148438 38.175781 L 18.148438 35.246094 L 21.085938 35.246094 " fill-opacity="1" fill-rule="nonzero"/><path fill="#fec447" d="M 21.085938 32.3125 L 21.085938 35.246094 L 18.148438 35.246094 L 18.148438 32.3125 L 21.085938 32.3125 " fill-opacity="1" fill-rule="nonzero"/><path fill="#fec447" d="M 21.085938 29.382812 L 21.085938 32.3125 L 18.148438 32.3125 L 18.148438 29.382812 L 21.085938 29.382812 " fill-opacity="1" fill-rule="nonzero"/><path fill="#fee670" d="M 21.085938 26.441406 L 21.085938 29.382812 L 18.148438 29.382812 L 18.148438 26.441406 L 21.085938 26.441406 " fill-opacity="1" fill-rule="nonzero"/><path fill="#fee670" d="M 21.085938 23.511719 L 21.085938 26.441406 L 18.148438 26.441406 L 18.148438 23.511719 L 21.085938 23.511719 " fill-opacity="1" fill-rule="nonzero"/><path fill="#fec447" d="M 21.085938 20.578125 L 21.085938 23.511719 L 18.148438 23.511719 L 18.148438 20.578125 L 21.085938 20.578125 " fill-opacity="1" fill-rule="nonzero"/><path fill="#fec447" d="M 21.085938 17.640625 L 21.085938 20.578125 L 18.148438 20.578125 L 18.148438 17.640625 L 21.085938 17.640625 " fill-opacity="1" fill-rule="nonzero"/><path fill="#fea52a" d="M 21.085938 14.707031 L 21.085938 17.640625 L 18.148438 17.640625 L 18.148438 14.707031 L 21.085938 14.707031 " fill-opacity="1" fill-rule="nonzero"/><path fill="#fea52a" d="M 21.085938 11.777344 L 21.085938 14.707031 L 18.148438 14.707031 L 18.148438 11.777344 L 21.085938 11.777344 " fill-opacity="1" fill-rule="nonzero"/><path fill="#fea52a" d="M 21.085938 8.84375 L 21.085938 11.777344 L 18.148438 11.777344 L 18.148438 8.84375 L 21.085938 8.84375 " fill-opacity="1" fill-rule="nonzero"/><path fill="#fea52a" d="M 21.085938 5.902344 L 21.085938 8.84375 L 18.148438 8.84375 L 18.148438 5.902344 L 21.085938 5.902344 " fill-opacity="1" fill-rule="nonzero"/><path fill="#c74424" d="M 21.085938 2.972656 L 21.085938 5.902344 L 18.148438 5.902344 L 18.148438 2.972656 L 21.085938 2.972656 " fill-opacity="1" fill-rule="nonzero"/><path fill="#fea52a" d="M 21.085938 0.0429688 L 21.085938 2.972656 L 18.148438 2.972656 L 18.148438 0.0429688 L 21.085938 0.0429688 " fill-opacity="1" fill-rule="nonzero"/><g clip-path="url(#9ac03ae05d)"><path fill="#fea52a" d="M 18.148438 44.046875 L 18.148438 46.980469 L 15.210938 46.980469 L 15.210938 44.046875 L 18.148438 44.046875 " fill-opacity="1" fill-rule="nonzero"/></g><path fill="#c74424" d="M 18.148438 41.117188 L 18.148438 44.046875 L 15.210938 44.046875 L 15.210938 41.117188 L 18.148438 41.117188 " fill-opacity="1" fill-rule="nonzero"/><path fill="#fec447" d="M 18.148438 38.175781 L 18.148438 41.117188 L 15.210938 41.117188 L 15.210938 38.175781 L 18.148438 38.175781 " fill-opacity="1" fill-rule="nonzero"/><path fill="#fec447" d="M 18.148438 35.246094 L 18.148438 38.175781 L 15.210938 38.175781 L 15.210938 35.246094 L 18.148438 35.246094 " fill-opacity="1" fill-rule="nonzero"/><path fill="#fee670" d="M 18.148438 32.3125 L 18.148438 35.246094 L 15.210938 35.246094 L 15.210938 32.3125 L 18.148438 32.3125 " fill-opacity="1" fill-rule="nonzero"/><path fill="#fee670" d="M 18.148438 29.382812 L 18.148438 32.3125 L 15.210938 32.3125 L 15.210938 29.382812 L 18.148438 29.382812 " fill-opacity="1" fill-rule="nonzero"/><path fill="#fec447" d="M 18.148438 26.441406 L 18.148438 29.382812 L 15.210938 29.382812 L 15.210938 26.441406 L 18.148438 26.441406 " fill-opacity="1" fill-rule="nonzero"/><path fill="#fec447" d="M 18.148438 23.511719 L 18.148438 26.441406 L 15.210938 26.441406 L 15.210938 23.511719 L 18.148438 23.511719 " fill-opacity="1" fill-rule="nonzero"/><path fill="#fea52a" d="M 18.148438 20.578125 L 18.148438 23.511719 L 15.210938 23.511719 L 15.210938 20.578125 L 18.148438 20.578125 " fill-opacity="1" fill-rule="nonzero"/><path fill="#fea52a" d="M 18.148438 17.640625 L 18.148438 20.578125 L 15.210938 20.578125 L 15.210938 17.640625 L 18.148438 17.640625 " fill-opacity="1" fill-rule="nonzero"/><path fill="#fea52a" d="M 18.148438 14.707031 L 18.148438 17.640625 L 15.210938 17.640625 L 15.210938 14.707031 L 18.148438 14.707031 " fill-opacity="1" fill-rule="nonzero"/><path fill="#fea52a" d="M 18.148438 11.777344 L 18.148438 14.707031 L 15.210938 14.707031 L 15.210938 11.777344 L 18.148438 11.777344 " fill-opacity="1" fill-rule="nonzero"/><path fill="#fec447" d="M 18.148438 8.84375 L 18.148438 11.777344 L 15.210938 11.777344 L 15.210938 8.84375 L 18.148438 8.84375 " fill-opacity="1" fill-rule="nonzero"/><path fill="#fec447" d="M 18.148438 5.902344 L 18.148438 8.84375 L 15.210938 8.84375 L 15.210938 5.902344 L 18.148438 5.902344 " fill-opacity="1" fill-rule="nonzero"/><path fill="#c74424" d="M 18.148438 2.972656 L 18.148438 5.902344 L 15.210938 5.902344 L 15.210938 2.972656 L 18.148438 2.972656 " fill-opacity="1" fill-rule="nonzero"/><path fill="#fea52a" d="M 18.148438 0.0429688 L 18.148438 2.972656 L 15.210938 2.972656 L 15.210938 0.0429688 L 18.148438 0.0429688 " fill-opacity="1" fill-rule="nonzero"/><g clip-path="url(#4633a35a3d)"><path fill="#fea52a" d="M 15.210938 44.046875 L 15.210938 46.980469 L 12.277344 46.980469 L 12.277344 44.046875 L 15.210938 44.046875 " fill-opacity="1" fill-rule="nonzero"/></g><path fill="#fea52a" d="M 15.210938 41.117188 L 15.210938 44.046875 L 12.277344 44.046875 L 12.277344 41.117188 L 15.210938 41.117188 " fill-opacity="1" fill-rule="nonzero"/><path fill="#c74424" d="M 15.210938 38.175781 L 15.210938 41.117188 L 12.277344 41.117188 L 12.277344 38.175781 L 15.210938 38.175781 " fill-opacity="1" fill-rule="nonzero"/><path fill="#fee670" d="M 15.210938 35.246094 L 15.210938 38.175781 L 12.277344 38.175781 L 12.277344 35.246094 L 15.210938 35.246094 " fill-opacity="1" fill-rule="nonzero"/><path fill="#fec447" d="M 15.210938 32.3125 L 15.210938 35.246094 L 12.277344 35.246094 L 12.277344 32.3125 L 15.210938 32.3125 " fill-opacity="1" fill-rule="nonzero"/><path fill="#fec447" d="M 15.210938 29.382812 L 15.210938 32.3125 L 12.277344 32.3125 L 12.277344 29.382812 L 15.210938 29.382812 " fill-opacity="1" fill-rule="nonzero"/><path fill="#fea52a" d="M 15.210938 26.441406 L 15.210938 29.382812 L 12.277344 29.382812 L 12.277344 26.441406 L 15.210938 26.441406 " fill-opacity="1" fill-rule="nonzero"/><path fill="#fea52a" d="M 15.210938 23.511719 L 15.210938 26.441406 L 12.277344 26.441406 L 12.277344 23.511719 L 15.210938 23.511719 " fill-opacity="1" fill-rule="nonzero"/><path fill="#fea52a" d="M 15.210938 20.578125 L 15.210938 23.511719 L 12.277344 23.511719 L 12.277344 20.578125 L 15.210938 20.578125 " fill-opacity="1" fill-rule="nonzero"/><path fill="#fea52a" d="M 15.210938 17.640625 L 15.210938 20.578125 L 12.277344 20.578125 L 12.277344 17.640625 L 15.210938 17.640625 " fill-opacity="1" fill-rule="nonzero"/><path fill="#fec447" d="M 15.210938 14.707031 L 15.210938 17.640625 L 12.277344 17.640625 L 12.277344 14.707031 L 15.210938 14.707031 " fill-opacity="1" fill-rule="nonzero"/><path fill="#fec447" d="M 15.210938 11.777344 L 15.210938 14.707031 L 12.277344 14.707031 L 12.277344 11.777344 L 15.210938 11.777344 " fill-opacity="1" fill-rule="nonzero"/><path fill="#fea52a" d="M 15.210938 8.84375 L 15.210938 11.777344 L 12.277344 11.777344 L 12.277344 8.84375 L 15.210938 8.84375 " fill-opacity="1" fill-rule="nonzero"/><path fill="#c74424" d="M 15.210938 5.902344 L 15.210938 8.84375 L 12.277344 8.84375 L 12.277344 5.902344 L 15.210938 5.902344 " fill-opacity="1" fill-rule="nonzero"/><path fill="#fea52a" d="M 15.210938 2.972656 L 15.210938 5.902344 L 12.277344 5.902344 L 12.277344 2.972656 L 15.210938 2.972656 " fill-opacity="1" fill-rule="nonzero"/><path fill="#fec447" d="M 15.210938 0.0429688 L 15.210938 2.972656 L 12.277344 2.972656 L 12.277344 0.0429688 L 15.210938 0.0429688 " fill-opacity="1" fill-rule="nonzero"/><path fill="#fea52a" d="M 12.277344 41.117188 L 12.277344 44.046875 L 9.332031 44.046875 L 9.332031 41.117188 L 12.277344 41.117188 " fill-opacity="1" fill-rule="nonzero"/><path fill="#fea52a" d="M 12.277344 38.175781 L 12.277344 41.117188 L 9.332031 41.117188 L 9.332031 38.175781 L 12.277344 38.175781 " fill-opacity="1" fill-rule="nonzero"/><path fill="#c74424" d="M 12.277344 35.246094 L 12.277344 38.175781 L 9.332031 38.175781 L 9.332031 35.246094 L 12.277344 35.246094 " fill-opacity="1" fill-rule="nonzero"/><path fill="#c74424" d="M 12.277344 32.3125 L 12.277344 35.246094 L 9.332031 35.246094 L 9.332031 32.3125 L 12.277344 32.3125 " fill-opacity="1" fill-rule="nonzero"/><path fill="#fea52a" d="M 12.277344 29.382812 L 12.277344 32.3125 L 9.332031 32.3125 L 9.332031 29.382812 L 12.277344 29.382812 " fill-opacity="1" fill-rule="nonzero"/><path fill="#fea52a" d="M 12.277344 26.441406 L 12.277344 29.382812 L 9.332031 29.382812 L 9.332031 26.441406 L 12.277344 26.441406 " fill-opacity="1" fill-rule="nonzero"/><path fill="#fea52a" d="M 12.277344 23.511719 L 12.277344 26.441406 L 9.332031 26.441406 L 9.332031 23.511719 L 12.277344 23.511719 " fill-opacity="1" fill-rule="nonzero"/><path fill="#fec447" d="M 12.277344 20.578125 L 12.277344 23.511719 L 9.332031 23.511719 L 9.332031 20.578125 L 12.277344 20.578125 " fill-opacity="1" fill-rule="nonzero"/><path fill="#fec447" d="M 12.277344 17.640625 L 12.277344 20.578125 L 9.332031 20.578125 L 9.332031 17.640625 L 12.277344 17.640625 " fill-opacity="1" fill-rule="nonzero"/><path fill="#fea52a" d="M 12.277344 14.707031 L 12.277344 17.640625 L 9.332031 17.640625 L 9.332031 14.707031 L 12.277344 14.707031 " fill-opacity="1" fill-rule="nonzero"/><path fill="#c74424" d="M 12.277344 11.777344 L 12.277344 14.707031 L 9.332031 14.707031 L 9.332031 11.777344 L 12.277344 11.777344 " fill-opacity="1" fill-rule="nonzero"/><path fill="#c74424" d="M 12.277344 8.84375 L 12.277344 11.777344 L 9.332031 11.777344 L 9.332031 8.84375 L 12.277344 8.84375 " fill-opacity="1" fill-rule="nonzero"/><path fill="#fea52a" d="M 12.277344 5.902344 L 12.277344 8.84375 L 9.332031 8.84375 L 9.332031 5.902344 L 12.277344 5.902344 " fill-opacity="1" fill-rule="nonzero"/><path fill="#fec447" d="M 12.277344 2.972656 L 12.277344 5.902344 L 9.332031 5.902344 L 9.332031 2.972656 L 12.277344 2.972656 " fill-opacity="1" fill-rule="nonzero"/><path fill="#fea52a" d="M 9.332031 38.175781 L 9.332031 41.117188 L 6.394531 41.117188 L 6.394531 38.175781 L 9.332031 38.175781 " fill-opacity="1" fill-rule="nonzero"/><path fill="#fea52a" d="M 9.332031 35.246094 L 9.332031 38.175781 L 6.394531 38.175781 L 6.394531 35.246094 L 9.332031 35.246094 " fill-opacity="1" fill-rule="nonzero"/><path fill="#fea52a" d="M 9.332031 32.3125 L 9.332031 35.246094 L 6.394531 35.246094 L 6.394531 32.3125 L 9.332031 32.3125 " fill-opacity="1" fill-rule="nonzero"/><path fill="#c74424" d="M 9.332031 29.382812 L 9.332031 32.3125 L 6.394531 32.3125 L 6.394531 29.382812 L 9.332031 29.382812 " fill-opacity="1" fill-rule="nonzero"/><path fill="#c74424" d="M 9.332031 26.441406 L 9.332031 29.382812 L 6.394531 29.382812 L 6.394531 26.441406 L 9.332031 26.441406 " fill-opacity="1" fill-rule="nonzero"/><path fill="#c74424" d="M 9.332031 23.511719 L 9.332031 26.441406 L 6.394531 26.441406 L 6.394531 23.511719 L 9.332031 23.511719 " fill-opacity="1" fill-rule="nonzero"/><path fill="#c74424" d="M 9.332031 20.578125 L 9.332031 23.511719 L 6.394531 23.511719 L 6.394531 20.578125 L 9.332031 20.578125 " fill-opacity="1" fill-rule="nonzero"/><path fill="#c74424" d="M 9.332031 17.640625 L 9.332031 20.578125 L 6.394531 20.578125 L 6.394531 17.640625 L 9.332031 17.640625 " fill-opacity="1" fill-rule="nonzero"/><path fill="#c74424" d="M 9.332031 14.707031 L 9.332031 17.640625 L 6.394531 17.640625 L 6.394531 14.707031 L 9.332031 14.707031 " fill-opacity="1" fill-rule="nonzero"/><path fill="#fea52a" d="M 9.332031 11.777344 L 9.332031 14.707031 L 6.394531 14.707031 L 6.394531 11.777344 L 9.332031 11.777344 " fill-opacity="1" fill-rule="nonzero"/><path fill="#fea52a" d="M 9.332031 8.84375 L 9.332031 11.777344 L 6.394531 11.777344 L 6.394531 8.84375 L 9.332031 8.84375 " fill-opacity="1" fill-rule="nonzero"/><path fill="#fec447" d="M 9.332031 5.902344 L 9.332031 8.84375 L 6.394531 8.84375 L 6.394531 5.902344 L 9.332031 5.902344 " fill-opacity="1" fill-rule="nonzero"/><g clip-path="url(#006e75cff8)"><path fill="#fea52a" d="M 6.394531 32.3125 L 6.394531 35.246094 L 3.457031 35.246094 L 3.457031 32.3125 L 6.394531 32.3125 " fill-opacity="1" fill-rule="nonzero"/></g><g clip-path="url(#c6a7621250)"><path fill="#fea52a" d="M 6.394531 29.382812 L 6.394531 32.3125 L 3.457031 32.3125 L 3.457031 29.382812 L 6.394531 29.382812 " fill-opacity="1" fill-rule="nonzero"/></g><g clip-path="url(#0a34d2070a)"><path fill="#fea52a" d="M 6.394531 26.441406 L 6.394531 29.382812 L 3.457031 29.382812 L 3.457031 26.441406 L 6.394531 26.441406 " fill-opacity="1" fill-rule="nonzero"/></g><g clip-path="url(#71965f67aa)"><path fill="#fea52a" d="M 6.394531 23.511719 L 6.394531 26.441406 L 3.457031 26.441406 L 3.457031 23.511719 L 6.394531 23.511719 " fill-opacity="1" fill-rule="nonzero"/></g><g clip-path="url(#b125086baf)"><path fill="#fea52a" d="M 6.394531 20.578125 L 6.394531 23.511719 L 3.457031 23.511719 L 3.457031 20.578125 L 6.394531 20.578125 " fill-opacity="1" fill-rule="nonzero"/></g><g clip-path="url(#6592b3ac35)"><path fill="#fea52a" d="M 6.394531 17.640625 L 6.394531 20.578125 L 3.457031 20.578125 L 3.457031 17.640625 L 6.394531 17.640625 " fill-opacity="1" fill-rule="nonzero"/></g><g clip-path="url(#4d5dbf9bea)"><path fill="#fea52a" d="M 6.394531 14.707031 L 6.394531 17.640625 L 3.457031 17.640625 L 3.457031 14.707031 L 6.394531 14.707031 " fill-opacity="1" fill-rule="nonzero"/></g><g clip-path="url(#08e0102d01)"><path fill="#fec447" d="M 6.394531 11.777344 L 6.394531 14.707031 L 3.457031 14.707031 L 3.457031 11.777344 L 6.394531 11.777344 " fill-opacity="1" fill-rule="nonzero"/></g></svg>